<svg width="400" height="162" viewBox="0 0 400 162" fill="none" xmlns="http://www.w3.org/2000/svg">
<path d="M52.6904 152.335H57.6804V153.492H55.8716V159.651H57.6804V160.803H52.6904V159.651H54.4584V153.492H52.6904V152.335Z" fill="#585858"/>
<path d="M64.8651 152.335L65.912 155.958L67.0693 152.335H68.8082V160.803H67.4939V157.93L67.5753 154.15L66.2726 158.192H65.5456L64.365 154.289L64.4406 157.93V160.803H63.132V152.335H64.8651Z" fill="#585858"/>
<path d="M75.4347 157.575V160.803H74.0389V152.335H76.8712C77.2977 152.339 77.6893 152.403 78.046 152.527C78.4065 152.651 78.7167 152.827 78.9765 153.056C79.2363 153.285 79.4379 153.562 79.5813 153.888C79.7248 154.214 79.7965 154.58 79.7965 154.987C79.7965 155.379 79.7248 155.733 79.5813 156.051C79.4379 156.365 79.2363 156.635 78.9765 156.86C78.7167 157.088 78.4065 157.265 78.046 157.389C77.6893 157.513 77.2977 157.575 76.8712 157.575H75.4347ZM75.4347 156.435H76.8712C77.1077 156.431 77.319 156.394 77.5051 156.325C77.6951 156.251 77.856 156.15 77.9878 156.022C78.1196 155.894 78.2185 155.743 78.2844 155.569C78.3542 155.394 78.3891 155.204 78.3891 154.999C78.3891 154.774 78.3542 154.57 78.2844 154.388C78.2185 154.202 78.1196 154.041 77.9878 153.905C77.856 153.77 77.6951 153.665 77.5051 153.591C77.319 153.518 77.1077 153.479 76.8712 153.475H75.4347V156.435Z" fill="#585858"/>
<path d="M90.1683 152.335L90.1742 158C90.1742 158.438 90.1063 158.837 89.9706 159.198C89.8388 159.554 89.6507 159.861 89.4065 160.117C89.1583 160.372 88.8598 160.57 88.5109 160.71C88.1658 160.849 87.7781 160.919 87.3477 160.919C86.9251 160.919 86.5432 160.851 86.202 160.716C85.8608 160.576 85.57 160.378 85.3296 160.122C85.0854 159.866 84.8954 159.558 84.7597 159.198C84.6279 158.837 84.56 158.438 84.5561 158L84.5678 152.335H85.9461L85.9577 158C85.9616 158.267 85.9946 158.513 86.0566 158.738C86.1186 158.959 86.2098 159.147 86.3299 159.302C86.4463 159.45 86.5878 159.566 86.7545 159.651C86.9251 159.733 87.1228 159.773 87.3477 159.773C87.5765 159.773 87.7781 159.733 87.9525 159.651C88.1309 159.566 88.2802 159.446 88.4004 159.291C88.5205 159.132 88.6117 158.944 88.6737 158.727C88.7357 158.506 88.7706 158.263 88.7784 158L88.79 152.335H90.1683Z" fill="#585858"/>
<path d="M96.9111 159.651H100.953V160.803H95.5095V152.335H96.9111V159.651Z" fill="#585858"/>
<path d="M110.528 158.622C110.528 158.424 110.487 158.25 110.406 158.098C110.325 157.947 110.21 157.812 110.063 157.691C109.908 157.579 109.724 157.478 109.51 157.389C109.301 157.296 109.066 157.213 108.807 157.139C108.407 157.026 108.039 156.889 107.702 156.726C107.368 156.559 107.083 156.373 106.847 156.168C106.61 155.958 106.424 155.722 106.288 155.458C106.157 155.191 106.091 154.89 106.091 154.557C106.091 154.196 106.168 153.872 106.323 153.585C106.478 153.295 106.688 153.047 106.951 152.841C107.215 152.639 107.521 152.486 107.87 152.382C108.223 152.273 108.593 152.219 108.981 152.219C109.392 152.219 109.774 152.283 110.127 152.411C110.484 152.535 110.794 152.709 111.057 152.934C111.321 153.163 111.528 153.436 111.68 153.754C111.835 154.068 111.912 154.417 111.912 154.801H110.528C110.509 154.588 110.462 154.394 110.389 154.219C110.319 154.041 110.22 153.888 110.092 153.76C109.96 153.636 109.799 153.539 109.609 153.469C109.423 153.395 109.208 153.359 108.964 153.359C108.75 153.359 108.553 153.388 108.37 153.446C108.192 153.5 108.037 153.578 107.905 153.679C107.773 153.783 107.671 153.909 107.597 154.057C107.523 154.204 107.487 154.369 107.487 154.551C107.49 154.745 107.541 154.915 107.638 155.063C107.735 155.206 107.865 155.332 108.027 155.441C108.194 155.549 108.384 155.644 108.597 155.726C108.814 155.807 109.041 155.883 109.278 155.952C109.576 156.038 109.867 156.144 110.15 156.272C110.437 156.396 110.701 156.548 110.941 156.726C111.24 156.951 111.478 157.22 111.656 157.534C111.839 157.845 111.93 158.203 111.93 158.61C111.93 158.986 111.85 159.318 111.691 159.605C111.536 159.892 111.327 160.13 111.063 160.32C110.796 160.518 110.485 160.667 110.133 160.768C109.78 160.865 109.408 160.913 109.016 160.913C108.601 160.913 108.192 160.849 107.789 160.721C107.386 160.59 107.035 160.4 106.736 160.151C106.461 159.919 106.242 159.645 106.079 159.331C105.92 159.017 105.839 158.657 105.835 158.25H107.231C107.25 158.509 107.304 158.736 107.393 158.93C107.487 159.12 107.613 159.277 107.771 159.401C107.927 159.529 108.109 159.624 108.318 159.686C108.531 159.748 108.764 159.779 109.016 159.779C109.229 159.779 109.427 159.754 109.609 159.704C109.795 159.653 109.956 159.578 110.092 159.477C110.224 159.38 110.328 159.26 110.406 159.116C110.487 158.973 110.528 158.808 110.528 158.622Z" fill="#585858"/>
<path d="M120.952 158.855H118.295L117.719 160.803H116.265L119.021 152.335H120.26L122.97 160.803H121.522L120.952 158.855ZM118.649 157.656H120.609L119.638 154.307L118.649 157.656Z" fill="#585858"/>
<path d="M133.034 160.803H131.632L128.882 154.975L128.876 160.803H127.462V152.335H128.882L131.615 158.139L131.627 152.335H133.034V160.803Z" fill="#585858"/>
<path d="M138.23 160.803V152.335H140.323C140.688 152.335 141.031 152.378 141.353 152.463C141.675 152.544 141.967 152.659 142.231 152.806C142.518 152.957 142.772 153.147 142.993 153.376C143.218 153.605 143.406 153.861 143.557 154.144C143.712 154.438 143.832 154.762 143.918 155.115C144.003 155.468 144.046 155.844 144.046 156.243V156.906C144.046 157.29 144.005 157.655 143.923 158C143.846 158.341 143.733 158.653 143.586 158.936C143.443 159.211 143.268 159.461 143.063 159.686C142.861 159.911 142.636 160.103 142.388 160.262C142.109 160.436 141.799 160.57 141.458 160.663C141.12 160.756 140.758 160.803 140.37 160.803H138.23ZM139.643 153.475V159.669H140.37C140.618 159.669 140.845 159.64 141.05 159.582C141.26 159.519 141.448 159.432 141.615 159.32C141.785 159.203 141.936 159.058 142.068 158.884C142.204 158.705 142.314 158.502 142.4 158.273C142.473 158.079 142.53 157.868 142.568 157.639C142.607 157.41 142.626 157.166 142.626 156.906V156.232C142.626 155.976 142.607 155.733 142.568 155.505C142.53 155.276 142.473 155.065 142.4 154.871C142.307 154.634 142.183 154.421 142.027 154.231C141.872 154.037 141.688 153.88 141.475 153.76C141.32 153.671 141.145 153.603 140.952 153.556C140.758 153.506 140.548 153.479 140.323 153.475H139.643Z" fill="#585858"/>
<path d="M154.76 157.133C154.76 157.474 154.729 157.804 154.667 158.122C154.609 158.44 154.524 158.74 154.412 159.023C154.291 159.306 154.142 159.568 153.964 159.808C153.785 160.045 153.58 160.248 153.347 160.419C153.122 160.574 152.872 160.696 152.597 160.785C152.326 160.875 152.027 160.919 151.701 160.919C151.364 160.919 151.054 160.873 150.771 160.78C150.492 160.683 150.242 160.551 150.021 160.384C149.796 160.213 149.598 160.008 149.427 159.768C149.261 159.527 149.121 159.264 149.009 158.977C148.9 158.701 148.819 158.409 148.764 158.098C148.71 157.784 148.683 157.463 148.683 157.133V156.016C148.683 155.671 148.712 155.338 148.77 155.016C148.828 154.694 148.916 154.39 149.032 154.103C149.144 153.828 149.282 153.576 149.445 153.347C149.612 153.114 149.807 152.913 150.032 152.742C150.249 152.575 150.496 152.448 150.771 152.358C151.05 152.265 151.356 152.219 151.69 152.219C152.027 152.219 152.337 152.265 152.62 152.358C152.903 152.451 153.157 152.581 153.382 152.748C153.607 152.915 153.803 153.11 153.97 153.335C154.136 153.56 154.276 153.806 154.388 154.074C154.512 154.361 154.605 154.669 154.667 154.999C154.729 155.324 154.76 155.664 154.76 156.016V157.133ZM153.353 156.005C153.349 155.792 153.336 155.582 153.312 155.377C153.293 155.171 153.258 154.975 153.208 154.789C153.15 154.576 153.072 154.382 152.975 154.208C152.882 154.029 152.768 153.878 152.632 153.754C152.512 153.646 152.374 153.56 152.219 153.498C152.064 153.436 151.887 153.405 151.69 153.405C151.5 153.405 151.329 153.436 151.178 153.498C151.027 153.556 150.895 153.638 150.782 153.742C150.647 153.87 150.532 154.024 150.439 154.202C150.346 154.376 150.275 154.572 150.224 154.789C150.178 154.975 150.143 155.173 150.119 155.383C150.1 155.588 150.09 155.795 150.09 156.005V157.133C150.09 157.339 150.1 157.542 150.119 157.744C150.139 157.945 150.172 158.139 150.218 158.325C150.269 158.535 150.337 158.73 150.422 158.913C150.511 159.091 150.618 159.242 150.742 159.366C150.862 159.483 151 159.576 151.155 159.645C151.314 159.711 151.496 159.744 151.701 159.744C151.899 159.744 152.077 159.711 152.236 159.645C152.399 159.58 152.539 159.49 152.655 159.378C152.791 159.25 152.903 159.099 152.992 158.924C153.086 158.746 153.159 158.55 153.213 158.337C153.26 158.151 153.293 157.957 153.312 157.755C153.336 157.55 153.349 157.342 153.353 157.133V156.005Z" fill="#585858"/>
<path d="M176.481 153.492H173.87V160.803H172.48V153.492H169.886V152.335H176.481V153.492Z" fill="#585858"/>
<path d="M186.708 152.335L186.713 158C186.713 158.438 186.646 158.837 186.51 159.198C186.378 159.554 186.19 159.861 185.946 160.117C185.698 160.372 185.399 160.57 185.05 160.71C184.705 160.849 184.317 160.919 183.887 160.919C183.464 160.919 183.082 160.851 182.741 160.716C182.4 160.576 182.109 160.378 181.869 160.122C181.625 159.866 181.435 159.558 181.299 159.198C181.167 158.837 181.099 158.438 181.095 158L181.107 152.335H182.485L182.497 158C182.501 158.267 182.534 158.513 182.596 158.738C182.658 158.959 182.749 159.147 182.869 159.302C182.986 159.45 183.127 159.566 183.294 159.651C183.464 159.733 183.662 159.773 183.887 159.773C184.116 159.773 184.317 159.733 184.492 159.651C184.67 159.566 184.819 159.446 184.94 159.291C185.06 159.132 185.151 158.944 185.213 158.727C185.275 158.506 185.31 158.263 185.318 158L185.329 152.335H186.708Z" fill="#585858"/>
<path d="M207.748 157.197H204.165V160.803H202.758V152.335H208.26V153.492H204.165V156.046H207.748V157.197Z" fill="#585858"/>
<path d="M218.887 152.335L218.893 158C218.893 158.438 218.825 158.837 218.69 159.198C218.558 159.554 218.37 159.861 218.125 160.117C217.877 160.372 217.579 160.57 217.23 160.71C216.885 160.849 216.497 160.919 216.067 160.919C215.644 160.919 215.262 160.851 214.921 160.716C214.58 160.576 214.289 160.378 214.049 160.122C213.804 159.866 213.614 159.558 213.479 159.198C213.347 158.837 213.279 158.438 213.275 158L213.287 152.335H214.665L214.677 158C214.681 158.267 214.714 158.513 214.776 158.738C214.838 158.959 214.929 159.147 215.049 159.302C215.165 159.45 215.307 159.566 215.474 159.651C215.644 159.733 215.842 159.773 216.067 159.773C216.295 159.773 216.497 159.733 216.672 159.651C216.85 159.566 216.999 159.446 217.119 159.291C217.24 159.132 217.331 158.944 217.393 158.727C217.455 158.506 217.49 158.263 217.497 158L217.509 152.335H218.887Z" fill="#585858"/>
<path d="M230.114 153.492H227.503V160.803H226.113V153.492H223.519V152.335H230.114V153.492Z" fill="#585858"/>
<path d="M240.341 152.335L240.346 158C240.346 158.438 240.278 158.837 240.143 159.198C240.011 159.554 239.823 159.861 239.579 160.117C239.331 160.372 239.032 160.57 238.683 160.71C238.338 160.849 237.95 160.919 237.52 160.919C237.097 160.919 236.715 160.851 236.374 160.716C236.033 160.576 235.742 160.378 235.502 160.122C235.258 159.866 235.068 159.558 234.932 159.198C234.8 158.837 234.732 158.438 234.728 158L234.74 152.335H236.118L236.13 158C236.134 158.267 236.167 158.513 236.229 158.738C236.291 158.959 236.382 159.147 236.502 159.302C236.618 159.45 236.76 159.566 236.927 159.651C237.097 159.733 237.295 159.773 237.52 159.773C237.749 159.773 237.95 159.733 238.125 159.651C238.303 159.566 238.452 159.446 238.573 159.291C238.693 159.132 238.784 158.944 238.846 158.727C238.908 158.506 238.943 158.263 238.951 158L238.962 152.335H240.341Z" fill="#585858"/>
<path d="M248.404 157.517H246.973V160.803H245.577V152.335H248.264C248.702 152.339 249.105 152.395 249.474 152.504C249.842 152.612 250.16 152.771 250.427 152.981C250.691 153.194 250.897 153.459 251.044 153.777C251.191 154.091 251.265 154.46 251.265 154.882C251.265 155.173 251.226 155.437 251.149 155.673C251.075 155.91 250.97 156.123 250.834 156.313C250.699 156.503 250.536 156.67 250.346 156.813C250.156 156.957 249.945 157.081 249.712 157.185L251.521 160.727V160.803H250.026L248.404 157.517ZM246.973 156.377H248.281C248.53 156.373 248.752 156.336 248.95 156.267C249.152 156.193 249.322 156.088 249.462 155.952C249.586 155.836 249.683 155.693 249.753 155.522C249.823 155.352 249.857 155.158 249.857 154.941C249.857 154.696 249.819 154.483 249.741 154.301C249.667 154.115 249.557 153.96 249.41 153.836C249.274 153.719 249.109 153.632 248.915 153.574C248.721 153.512 248.504 153.479 248.264 153.475H246.973V156.377Z" fill="#585858"/>
<path d="M262.026 157.133C262.026 157.474 261.995 157.804 261.933 158.122C261.875 158.44 261.79 158.74 261.677 159.023C261.557 159.306 261.408 159.568 261.23 159.808C261.051 160.045 260.846 160.248 260.613 160.419C260.388 160.574 260.138 160.696 259.863 160.785C259.591 160.875 259.293 160.919 258.967 160.919C258.63 160.919 258.32 160.873 258.037 160.78C257.758 160.683 257.507 160.551 257.286 160.384C257.062 160.213 256.864 160.008 256.693 159.768C256.527 159.527 256.387 159.264 256.275 158.977C256.166 158.701 256.085 158.409 256.03 158.098C255.976 157.784 255.949 157.463 255.949 157.133V156.016C255.949 155.671 255.978 155.338 256.036 155.016C256.094 154.694 256.181 154.39 256.298 154.103C256.41 153.828 256.548 153.576 256.711 153.347C256.877 153.114 257.073 152.913 257.298 152.742C257.515 152.575 257.761 152.448 258.037 152.358C258.316 152.265 258.622 152.219 258.956 152.219C259.293 152.219 259.603 152.265 259.886 152.358C260.169 152.451 260.423 152.581 260.648 152.748C260.873 152.915 261.069 153.11 261.235 153.335C261.402 153.56 261.542 153.806 261.654 154.074C261.778 154.361 261.871 154.669 261.933 154.999C261.995 155.324 262.026 155.664 262.026 156.016V157.133ZM260.619 156.005C260.615 155.792 260.601 155.582 260.578 155.377C260.559 155.171 260.524 154.975 260.474 154.789C260.415 154.576 260.338 154.382 260.241 154.208C260.148 154.029 260.033 153.878 259.898 153.754C259.778 153.646 259.64 153.56 259.485 153.498C259.33 153.436 259.153 153.405 258.956 153.405C258.766 153.405 258.595 153.436 258.444 153.498C258.293 153.556 258.161 153.638 258.048 153.742C257.913 153.87 257.798 154.024 257.705 154.202C257.612 154.376 257.54 154.572 257.49 154.789C257.443 154.975 257.409 155.173 257.385 155.383C257.366 155.588 257.356 155.795 257.356 156.005V157.133C257.356 157.339 257.366 157.542 257.385 157.744C257.405 157.945 257.438 158.139 257.484 158.325C257.535 158.535 257.602 158.73 257.688 158.913C257.777 159.091 257.884 159.242 258.008 159.366C258.128 159.483 258.265 159.576 258.421 159.645C258.58 159.711 258.762 159.744 258.967 159.744C259.165 159.744 259.343 159.711 259.502 159.645C259.665 159.58 259.805 159.49 259.921 159.378C260.057 159.25 260.169 159.099 260.258 158.924C260.351 158.746 260.425 158.55 260.479 158.337C260.526 158.151 260.559 157.957 260.578 157.755C260.601 157.55 260.615 157.342 260.619 157.133V156.005Z" fill="#585858"/>
<path d="M277.675 160.803V152.335H279.769C280.133 152.335 280.477 152.378 280.798 152.463C281.12 152.544 281.413 152.659 281.677 152.806C281.964 152.957 282.217 153.147 282.438 153.376C282.663 153.605 282.851 153.861 283.003 154.144C283.158 154.438 283.278 154.762 283.363 155.115C283.448 155.468 283.491 155.844 283.491 156.243V156.906C283.491 157.29 283.45 157.655 283.369 158C283.291 158.341 283.179 158.653 283.032 158.936C282.888 159.211 282.714 159.461 282.508 159.686C282.307 159.911 282.082 160.103 281.834 160.262C281.554 160.436 281.244 160.57 280.903 160.663C280.566 160.756 280.203 160.803 279.816 160.803H277.675ZM279.089 153.475V159.669H279.816C280.064 159.669 280.291 159.64 280.496 159.582C280.705 159.519 280.893 159.432 281.06 159.32C281.231 159.203 281.382 159.058 281.514 158.884C281.649 158.705 281.76 158.502 281.845 158.273C281.919 158.079 281.975 157.868 282.014 157.639C282.053 157.41 282.072 157.166 282.072 156.906V156.232C282.072 155.976 282.053 155.733 282.014 155.505C281.975 155.276 281.919 155.065 281.845 154.871C281.752 154.634 281.628 154.421 281.473 154.231C281.318 154.037 281.134 153.88 280.921 153.76C280.765 153.671 280.591 153.603 280.397 153.556C280.203 153.506 279.994 153.479 279.769 153.475H279.089Z" fill="#585858"/>
<path d="M288.675 152.335H293.665V153.492H291.856V159.651H293.665V160.803H288.675V159.651H290.443V153.492H288.675V152.335Z" fill="#585858"/>
<path d="M304.869 159.762C304.752 159.901 304.611 160.037 304.444 160.169C304.277 160.297 304.089 160.411 303.88 160.512C303.616 160.64 303.329 160.739 303.019 160.809C302.709 160.882 302.378 160.919 302.025 160.919C301.699 160.919 301.395 160.876 301.112 160.791C300.829 160.706 300.573 160.586 300.344 160.431C300.115 160.276 299.91 160.087 299.728 159.866C299.549 159.645 299.4 159.399 299.28 159.128C299.144 158.845 299.041 158.533 298.972 158.192C298.902 157.85 298.865 157.492 298.861 157.116V156.034C298.865 155.669 298.898 155.32 298.96 154.987C299.026 154.654 299.121 154.345 299.245 154.062C299.365 153.795 299.509 153.551 299.675 153.33C299.842 153.109 300.032 152.917 300.245 152.754C300.478 152.583 300.734 152.451 301.013 152.358C301.296 152.265 301.602 152.219 301.932 152.219C302.378 152.219 302.773 152.279 303.118 152.399C303.463 152.519 303.758 152.692 304.002 152.917C304.25 153.145 304.446 153.423 304.59 153.748C304.733 154.07 304.824 154.433 304.863 154.836H303.49C303.455 154.615 303.403 154.415 303.333 154.237C303.264 154.055 303.171 153.901 303.054 153.777C302.93 153.646 302.777 153.545 302.595 153.475C302.416 153.405 302.205 153.37 301.961 153.37C301.782 153.37 301.618 153.401 301.466 153.463C301.315 153.521 301.18 153.603 301.059 153.708C300.92 153.828 300.798 153.977 300.693 154.155C300.592 154.33 300.509 154.526 300.443 154.743C300.385 154.933 300.342 155.136 300.315 155.353C300.288 155.571 300.274 155.794 300.274 156.022V157.116C300.274 157.383 300.292 157.637 300.327 157.877C300.365 158.118 300.422 158.341 300.495 158.546C300.553 158.701 300.621 158.847 300.699 158.982C300.78 159.118 300.875 159.238 300.984 159.343C301.119 159.479 301.277 159.583 301.455 159.657C301.637 159.731 301.843 159.77 302.071 159.773C302.207 159.773 302.345 159.766 302.484 159.75C302.624 159.731 302.758 159.702 302.886 159.663C303.01 159.624 303.124 159.576 303.229 159.518C303.333 159.455 303.417 159.384 303.479 159.302L303.485 157.61H301.949V156.522H304.857L304.869 159.762Z" fill="#585858"/>
<path d="M310.128 152.335H315.118V153.492H313.31V159.651H315.118V160.803H310.128V159.651H311.896V153.492H310.128V152.335Z" fill="#585858"/>
<path d="M326.653 153.492H324.042V160.803H322.652V153.492H320.058V152.335H326.653V153.492Z" fill="#585858"/>
<path d="M335.484 158.855H332.826L332.25 160.803H330.797L333.553 152.335H334.792L337.502 160.803H336.054L335.484 158.855ZM333.181 157.656H335.141L334.17 154.307L333.181 157.656Z" fill="#585858"/>
<path d="M343.623 159.651H347.665V160.803H342.221V152.335H343.623V159.651Z" fill="#585858"/>
<path d="M21.9605 36.615C23.898 34.6674 26.203 33.1237 28.7414 32.0733C31.2799 31.0229 34.0015 30.4868 36.7487 30.4958C40.4601 30.4467 44.1273 31.3033 47.4329 32.9917C50.7385 34.6801 53.5826 37.1491 55.7185 40.1848L65.9191 29.7802C62.566 25.4593 58.2426 21.9886 53.2985 19.6497C48.3545 17.3107 42.9288 16.1692 37.4614 16.3173C32.5535 16.1607 27.6634 16.9819 23.0758 18.7331C18.4882 20.4844 14.2946 23.1305 10.7395 26.5178C7.1589 29.9768 4.3534 34.1563 2.50776 38.7801C0.662112 43.4038 -0.181819 48.3665 0.0326547 53.3404C0.0258025 56.6375 0.400567 59.9243 1.14864 63.1355H17.5092C16.2202 59.9248 15.5838 56.4895 15.6372 53.0302C15.4845 50.004 15.9682 46.9793 17.0575 44.1518C18.1467 41.3242 19.817 38.7567 21.9605 36.615Z" fill="#ACACAC"/>
<path d="M131.416 26.8333C127.969 23.3933 123.859 20.6886 119.336 18.8829C114.814 17.0772 109.971 16.208 105.102 16.3279C100.248 16.2389 95.4249 17.1312 90.9233 18.9513C86.4217 20.7715 82.3344 23.4821 78.9058 26.9204C75.4772 30.3586 72.7778 34.4537 70.9703 38.9604C69.1629 43.4671 68.2843 48.2924 68.387 53.1469C68.3789 56.5189 68.7857 59.879 69.5979 63.1516H85.9233C84.5975 59.9848 83.9351 56.5798 83.9776 53.1469C83.8215 47.2663 85.899 41.545 89.792 37.1347C91.7734 34.9644 94.2063 33.2549 96.9197 32.1267C99.6332 30.9984 102.561 30.4788 105.497 30.6045C108.361 30.529 111.208 31.0838 113.834 32.2296C116.461 33.3754 118.803 35.0843 120.696 37.2353C124.67 41.5691 126.824 47.2655 126.712 53.1443C126.754 56.5771 126.092 59.9822 124.766 63.149H140.896C141.712 59.877 142.121 56.5166 142.112 53.1443C142.259 48.2557 141.384 43.3905 139.542 38.8598C137.7 34.3291 134.932 30.2329 131.416 26.8333Z" fill="#ACACAC"/>
<path d="M125.662 0H108.321L100.776 10.5052H115.665L125.662 0Z" fill="#FF503B"/>
<path d="M201.069 25.2933C193.079 19.9638 183.643 17.2222 174.042 17.4408H150.479V63.1517H165.675V31.4126H171.693C189.542 31.4126 198.519 38.5522 198.519 52.728C198.599 56.301 197.919 59.8502 196.525 63.1409H212.643C213.504 59.7374 213.932 56.2388 213.918 52.728C213.918 40.3888 208.921 30.5963 201.069 25.2933Z" fill="#ACACAC"/>
<path d="M237.532 17.4408H222.436V63.1408H237.532V17.4408Z" fill="#ACACAC"/>
<path d="M284.036 50.2628V63.1327H298.211H313.103V50.2546L284.036 50.2628Z" fill="#ACACAC"/>
<path d="M261.7 53.0356C261.547 50.0083 262.031 46.9825 263.121 44.154C264.211 41.3255 265.882 38.7571 268.026 36.6149C269.964 34.6672 272.269 33.1235 274.807 32.0731C277.346 31.0227 280.067 30.4866 282.814 30.4958C286.526 30.4466 290.193 31.3033 293.499 32.9916C296.804 34.68 299.648 37.149 301.783 40.1848L311.981 29.7802C308.63 25.4582 304.307 21.987 299.363 19.6479C294.419 17.3088 288.994 16.1678 283.526 16.3172C278.618 16.1604 273.728 16.9815 269.141 18.7327C264.553 20.4839 260.36 23.1303 256.805 26.5177C253.224 29.9763 250.417 34.1555 248.571 38.7793C246.725 43.4031 245.881 48.3662 246.096 53.3403C246.09 56.6402 246.482 59.9288 247.261 63.1354H263.646C262.317 59.9363 261.654 56.4995 261.7 53.0356Z" fill="#ACACAC"/>
<path d="M335.249 53.1361C335.093 47.2555 337.17 41.5341 341.063 37.1237C343.044 34.9534 345.477 33.2441 348.191 32.1158C350.904 30.9876 353.832 30.4678 356.768 30.5935C359.632 30.5182 362.478 31.0732 365.105 32.219C367.731 33.3648 370.075 35.0734 371.968 37.2243C375.941 41.5581 378.095 47.2547 377.984 53.1334C378.026 56.5663 377.363 59.9715 376.037 63.1381H392.167C392.984 59.8662 393.392 56.5058 393.383 53.1334C393.528 48.2435 392.651 43.377 390.807 38.8458C388.963 34.3146 386.192 30.2184 382.673 26.8197C379.226 23.3796 375.117 20.6747 370.594 18.869C366.071 17.0632 361.229 16.1942 356.36 16.3143C351.505 16.2253 346.683 17.1176 342.182 18.9377C337.68 20.7578 333.592 23.4685 330.163 26.9067C326.735 30.345 324.035 34.4403 322.228 38.9469C320.421 43.4536 319.543 48.2789 319.645 53.1334C319.637 56.5054 320.043 59.8655 320.856 63.1381H337.181C335.861 59.9711 335.203 56.5671 335.249 53.1361Z" fill="#ACACAC"/>
<path d="M46.8291 116.669L22.2083 75.3468H6.63623V136.33H19.599V95.182L44.2171 136.33H59.7021V75.3468H46.8264L46.8291 116.669Z" fill="#FF503B"/>
<path d="M87.4224 75.3468L63.5874 136.33H76.9846L93.6015 92.9181L110.218 136.33H123.616L99.7806 75.3468H87.4224Z" fill="#FF503B"/>
<path d="M175.992 95.2689C176.117 92.4842 175.584 89.7093 174.435 87.1696C173.286 84.6298 171.555 82.3968 169.381 80.6523C164.616 76.9639 158.697 75.0842 152.677 75.3467H127.449V136.33H140.411V116.756H150.765L162.769 136.33H177.461L163.977 114.321C167.611 112.652 170.682 109.962 172.815 106.58C174.949 103.197 176.052 99.2675 175.992 95.2689ZM150.416 104.925H140.411V87.264H150.416C159.123 87.264 163.117 90.0503 163.117 95.9709C163.117 101.968 158.853 104.923 150.416 104.923V104.925Z" fill="#FF503B"/>
<path d="M203.787 75.3468L179.951 136.33H193.346L209.963 92.9181L226.58 136.33H239.974L216.14 75.3468H203.787Z" fill="#FF503B"/>
<path d="M284.006 116.669L259.388 75.3468H243.816V136.33H256.779V95.182L281.397 136.33H296.881V75.3468H284.006V116.669Z" fill="#FF503B"/>
<path d="M326.224 115.885C326.224 121.89 323.092 125.457 317.873 125.457C314.305 125.457 311.434 123.371 309.261 119.199L300.555 127.811C302.323 130.88 304.913 133.394 308.034 135.069C311.154 136.744 314.681 137.515 318.216 137.293C331.439 137.293 339.094 129.549 339.094 115.371V75.3468H326.219L326.224 115.885Z" fill="#FF503B"/>
<path d="M376.163 75.3468H363.81L339.972 136.33H353.37L369.986 92.9181L386.603 136.33H400L376.163 75.3468Z" fill="#FF503B"/>
</svg>
